<?xml version="1.0" encoding="utf-8" standalone="no"?>
<!DOCTYPE svg PUBLIC "-//W3C//DTD SVG 1.1//EN"
  "http://www.w3.org/Graphics/SVG/1.1/DTD/svg11.dtd">
<!-- Created with matplotlib (http://matplotlib.org/) -->
<svg height="288pt" version="1.1" viewBox="0 0 432 288" width="432pt" xmlns="http://www.w3.org/2000/svg" xmlns:xlink="http://www.w3.org/1999/xlink">
 <defs>
  <style type="text/css">
*{stroke-linecap:butt;stroke-linejoin:round;}
  </style>
 </defs>
 <g id="figure_1">
  <g id="patch_1">
   <path d="M 0 288 
L 432 288 
L 432 0 
L 0 0 
z
" style="fill:#ffffff;"/>
  </g>
  <g id="axes_1">
   <g id="patch_2">
    <path d="M 54 252 
L 388.8 252 
L 388.8 34.56 
L 54 34.56 
z
" style="fill:#ffffff;"/>
   </g>
   <g id="matplotlib.axis_1">
    <g id="xtick_1">
     <g id="line2d_1">
      <defs>
       <path d="M 0 0 
L 0 3.5 
" id="mc5c0a8c2d4" style="stroke:#000000;stroke-width:0.8;"/>
      </defs>
      <g>
       <use style="stroke:#000000;stroke-width:0.8;" x="69.218182" xlink:href="#mc5c0a8c2d4" y="252"/>
      </g>
     </g>
     <g id="text_1">
      <!-- 0.5 -->
      <defs>
       <path d="M 31.78125 66.40625 
Q 24.171875 66.40625 20.328125 58.90625 
Q 16.5 51.421875 16.5 36.375 
Q 16.5 21.390625 20.328125 13.890625 
Q 24.171875 6.390625 31.78125 6.390625 
Q 39.453125 6.390625 43.28125 13.890625 
Q 47.125 21.390625 47.125 36.375 
Q 47.125 51.421875 43.28125 58.90625 
Q 39.453125 66.40625 31.78125 66.40625 
z
M 31.78125 74.21875 
Q 44.046875 74.21875 50.515625 64.515625 
Q 56.984375 54.828125 56.984375 36.375 
Q 56.984375 17.96875 50.515625 8.265625 
Q 44.046875 -1.421875 31.78125 -1.421875 
Q 19.53125 -1.421875 13.0625 8.265625 
Q 6.59375 17.96875 6.59375 36.375 
Q 6.59375 54.828125 13.0625 64.515625 
Q 19.53125 74.21875 31.78125 74.21875 
z
" id="DejaVuSans-30"/>
       <path d="M 10.6875 12.40625 
L 21 12.40625 
L 21 0 
L 10.6875 0 
z
" id="DejaVuSans-2e"/>
       <path d="M 10.796875 72.90625 
L 49.515625 72.90625 
L 49.515625 64.59375 
L 19.828125 64.59375 
L 19.828125 46.734375 
Q 21.96875 47.46875 24.109375 47.828125 
Q 26.265625 48.1875 28.421875 48.1875 
Q 40.625 48.1875 47.75 41.5 
Q 54.890625 34.8125 54.890625 23.390625 
Q 54.890625 11.625 47.5625 5.09375 
Q 40.234375 -1.421875 26.90625 -1.421875 
Q 22.3125 -1.421875 17.546875 -0.640625 
Q 12.796875 0.140625 7.71875 1.703125 
L 7.71875 11.625 
Q 12.109375 9.234375 16.796875 8.0625 
Q 21.484375 6.890625 26.703125 6.890625 
Q 35.15625 6.890625 40.078125 11.328125 
Q 45.015625 15.765625 45.015625 23.390625 
Q 45.015625 31 40.078125 35.4375 
Q 35.15625 39.890625 26.703125 39.890625 
Q 22.75 39.890625 18.8125 39.015625 
Q 14.890625 38.140625 10.796875 36.28125 
z
" id="DejaVuSans-35"/>
      </defs>
      <g transform="translate(61.266619 266.598437)scale(0.1 -0.1)">
       <use xlink:href="#DejaVuSans-30"/>
       <use x="63.623047" xlink:href="#DejaVuSans-2e"/>
       <use x="95.410156" xlink:href="#DejaVuSans-35"/>
      </g>
     </g>
    </g>
    <g id="xtick_2">
     <g id="line2d_2">
      <g>
       <use style="stroke:#000000;stroke-width:0.8;" x="130.090909" xlink:href="#mc5c0a8c2d4" y="252"/>
      </g>
     </g>
     <g id="text_2">
      <!-- 0.6 -->
      <defs>
       <path d="M 33.015625 40.375 
Q 26.375 40.375 22.484375 35.828125 
Q 18.609375 31.296875 18.609375 23.390625 
Q 18.609375 15.53125 22.484375 10.953125 
Q 26.375 6.390625 33.015625 6.390625 
Q 39.65625 6.390625 43.53125 10.953125 
Q 47.40625 15.53125 47.40625 23.390625 
Q 47.40625 31.296875 43.53125 35.828125 
Q 39.65625 40.375 33.015625 40.375 
z
M 52.59375 71.296875 
L 52.59375 62.3125 
Q 48.875 64.0625 45.09375 64.984375 
Q 41.3125 65.921875 37.59375 65.921875 
Q 27.828125 65.921875 22.671875 59.328125 
Q 17.53125 52.734375 16.796875 39.40625 
Q 19.671875 43.65625 24.015625 45.921875 
Q 28.375 48.1875 33.59375 48.1875 
Q 44.578125 48.1875 50.953125 41.515625 
Q 57.328125 34.859375 57.328125 23.390625 
Q 57.328125 12.15625 50.6875 5.359375 
Q 44.046875 -1.421875 33.015625 -1.421875 
Q 20.359375 -1.421875 13.671875 8.265625 
Q 6.984375 17.96875 6.984375 36.375 
Q 6.984375 53.65625 15.1875 63.9375 
Q 23.390625 74.21875 37.203125 74.21875 
Q 40.921875 74.21875 44.703125 73.484375 
Q 48.484375 72.75 52.59375 71.296875 
z
" id="DejaVuSans-36"/>
      </defs>
      <g transform="translate(122.139347 266.598437)scale(0.1 -0.1)">
       <use xlink:href="#DejaVuSans-30"/>
       <use x="63.623047" xlink:href="#DejaVuSans-2e"/>
       <use x="95.410156" xlink:href="#DejaVuSans-36"/>
      </g>
     </g>
    </g>
    <g id="xtick_3">
     <g id="line2d_3">
      <g>
       <use style="stroke:#000000;stroke-width:0.8;" x="190.963636" xlink:href="#mc5c0a8c2d4" y="252"/>
      </g>
     </g>
     <g id="text_3">
      <!-- 0.7 -->
      <defs>
       <path d="M 8.203125 72.90625 
L 55.078125 72.90625 
L 55.078125 68.703125 
L 28.609375 0 
L 18.3125 0 
L 43.21875 64.59375 
L 8.203125 64.59375 
z
" id="DejaVuSans-37"/>
      </defs>
      <g transform="translate(183.012074 266.598437)scale(0.1 -0.1)">
       <use xlink:href="#DejaVuSans-30"/>
       <use x="63.623047" xlink:href="#DejaVuSans-2e"/>
       <use x="95.410156" xlink:href="#DejaVuSans-37"/>
      </g>
     </g>
    </g>
    <g id="xtick_4">
     <g id="line2d_4">
      <g>
       <use style="stroke:#000000;stroke-width:0.8;" x="251.836364" xlink:href="#mc5c0a8c2d4" y="252"/>
      </g>
     </g>
     <g id="text_4">
      <!-- 0.8 -->
      <defs>
       <path d="M 31.78125 34.625 
Q 24.75 34.625 20.71875 30.859375 
Q 16.703125 27.09375 16.703125 20.515625 
Q 16.703125 13.921875 20.71875 10.15625 
Q 24.75 6.390625 31.78125 6.390625 
Q 38.8125 6.390625 42.859375 10.171875 
Q 46.921875 13.96875 46.921875 20.515625 
Q 46.921875 27.09375 42.890625 30.859375 
Q 38.875 34.625 31.78125 34.625 
z
M 21.921875 38.8125 
Q 15.578125 40.375 12.03125 44.71875 
Q 8.5 49.078125 8.5 55.328125 
Q 8.5 64.0625 14.71875 69.140625 
Q 20.953125 74.21875 31.78125 74.21875 
Q 42.671875 74.21875 48.875 69.140625 
Q 55.078125 64.0625 55.078125 55.328125 
Q 55.078125 49.078125 51.53125 44.71875 
Q 48 40.375 41.703125 38.8125 
Q 48.828125 37.15625 52.796875 32.3125 
Q 56.78125 27.484375 56.78125 20.515625 
Q 56.78125 9.90625 50.3125 4.234375 
Q 43.84375 -1.421875 31.78125 -1.421875 
Q 19.734375 -1.421875 13.25 4.234375 
Q 6.78125 9.90625 6.78125 20.515625 
Q 6.78125 27.484375 10.78125 32.3125 
Q 14.796875 37.15625 21.921875 38.8125 
z
M 18.3125 54.390625 
Q 18.3125 48.734375 21.84375 45.5625 
Q 25.390625 42.390625 31.78125 42.390625 
Q 38.140625 42.390625 41.71875 45.5625 
Q 45.3125 48.734375 45.3125 54.390625 
Q 45.3125 60.0625 41.71875 63.234375 
Q 38.140625 66.40625 31.78125 66.40625 
Q 25.390625 66.40625 21.84375 63.234375 
Q 18.3125 60.0625 18.3125 54.390625 
z
" id="DejaVuSans-38"/>
      </defs>
      <g transform="translate(243.884801 266.598437)scale(0.1 -0.1)">
       <use xlink:href="#DejaVuSans-30"/>
       <use x="63.623047" xlink:href="#DejaVuSans-2e"/>
       <use x="95.410156" xlink:href="#DejaVuSans-38"/>
      </g>
     </g>
    </g>
    <g id="xtick_5">
     <g id="line2d_5">
      <g>
       <use style="stroke:#000000;stroke-width:0.8;" x="312.709091" xlink:href="#mc5c0a8c2d4" y="252"/>
      </g>
     </g>
     <g id="text_5">
      <!-- 0.9 -->
      <defs>
       <path d="M 10.984375 1.515625 
L 10.984375 10.5 
Q 14.703125 8.734375 18.5 7.8125 
Q 22.3125 6.890625 25.984375 6.890625 
Q 35.75 6.890625 40.890625 13.453125 
Q 46.046875 20.015625 46.78125 33.40625 
Q 43.953125 29.203125 39.59375 26.953125 
Q 35.25 24.703125 29.984375 24.703125 
Q 19.046875 24.703125 12.671875 31.3125 
Q 6.296875 37.9375 6.296875 49.421875 
Q 6.296875 60.640625 12.9375 67.421875 
Q 19.578125 74.21875 30.609375 74.21875 
Q 43.265625 74.21875 49.921875 64.515625 
Q 56.59375 54.828125 56.59375 36.375 
Q 56.59375 19.140625 48.40625 8.859375 
Q 40.234375 -1.421875 26.421875 -1.421875 
Q 22.703125 -1.421875 18.890625 -0.6875 
Q 15.09375 0.046875 10.984375 1.515625 
z
M 30.609375 32.421875 
Q 37.25 32.421875 41.125 36.953125 
Q 45.015625 41.5 45.015625 49.421875 
Q 45.015625 57.28125 41.125 61.84375 
Q 37.25 66.40625 30.609375 66.40625 
Q 23.96875 66.40625 20.09375 61.84375 
Q 16.21875 57.28125 16.21875 49.421875 
Q 16.21875 41.5 20.09375 36.953125 
Q 23.96875 32.421875 30.609375 32.421875 
z
" id="DejaVuSans-39"/>
      </defs>
      <g transform="translate(304.757528 266.598437)scale(0.1 -0.1)">
       <use xlink:href="#DejaVuSans-30"/>
       <use x="63.623047" xlink:href="#DejaVuSans-2e"/>
       <use x="95.410156" xlink:href="#DejaVuSans-39"/>
      </g>
     </g>
    </g>
    <g id="xtick_6">
     <g id="line2d_6">
      <g>
       <use style="stroke:#000000;stroke-width:0.8;" x="373.581818" xlink:href="#mc5c0a8c2d4" y="252"/>
      </g>
     </g>
     <g id="text_6">
      <!-- 1.0 -->
      <defs>
       <path d="M 12.40625 8.296875 
L 28.515625 8.296875 
L 28.515625 63.921875 
L 10.984375 60.40625 
L 10.984375 69.390625 
L 28.421875 72.90625 
L 38.28125 72.90625 
L 38.28125 8.296875 
L 54.390625 8.296875 
L 54.390625 0 
L 12.40625 0 
z
" id="DejaVuSans-31"/>
      </defs>
      <g transform="translate(365.630256 266.598437)scale(0.1 -0.1)">
       <use xlink:href="#DejaVuSans-31"/>
       <use x="63.623047" xlink:href="#DejaVuSans-2e"/>
       <use x="95.410156" xlink:href="#DejaVuSans-30"/>
      </g>
     </g>
    </g>
    <g id="text_7">
     <!-- Maximum fraction of monoallelic expression -->
     <defs>
      <path d="M 9.8125 72.90625 
L 24.515625 72.90625 
L 43.109375 23.296875 
L 61.8125 72.90625 
L 76.515625 72.90625 
L 76.515625 0 
L 66.890625 0 
L 66.890625 64.015625 
L 48.09375 14.015625 
L 38.1875 14.015625 
L 19.390625 64.015625 
L 19.390625 0 
L 9.8125 0 
z
" id="DejaVuSans-4d"/>
      <path d="M 34.28125 27.484375 
Q 23.390625 27.484375 19.1875 25 
Q 14.984375 22.515625 14.984375 16.5 
Q 14.984375 11.71875 18.140625 8.90625 
Q 21.296875 6.109375 26.703125 6.109375 
Q 34.1875 6.109375 38.703125 11.40625 
Q 43.21875 16.703125 43.21875 25.484375 
L 43.21875 27.484375 
z
M 52.203125 31.203125 
L 52.203125 0 
L 43.21875 0 
L 43.21875 8.296875 
Q 40.140625 3.328125 35.546875 0.953125 
Q 30.953125 -1.421875 24.3125 -1.421875 
Q 15.921875 -1.421875 10.953125 3.296875 
Q 6 8.015625 6 15.921875 
Q 6 25.140625 12.171875 29.828125 
Q 18.359375 34.515625 30.609375 34.515625 
L 43.21875 34.515625 
L 43.21875 35.40625 
Q 43.21875 41.609375 39.140625 45 
Q 35.0625 48.390625 27.6875 48.390625 
Q 23 48.390625 18.546875 47.265625 
Q 14.109375 46.140625 10.015625 43.890625 
L 10.015625 52.203125 
Q 14.9375 54.109375 19.578125 55.046875 
Q 24.21875 56 28.609375 56 
Q 40.484375 56 46.34375 49.84375 
Q 52.203125 43.703125 52.203125 31.203125 
z
" id="DejaVuSans-61"/>
      <path d="M 54.890625 54.6875 
L 35.109375 28.078125 
L 55.90625 0 
L 45.3125 0 
L 29.390625 21.484375 
L 13.484375 0 
L 2.875 0 
L 24.125 28.609375 
L 4.6875 54.6875 
L 15.28125 54.6875 
L 29.78125 35.203125 
L 44.28125 54.6875 
z
" id="DejaVuSans-78"/>
      <path d="M 9.421875 54.6875 
L 18.40625 54.6875 
L 18.40625 0 
L 9.421875 0 
z
M 9.421875 75.984375 
L 18.40625 75.984375 
L 18.40625 64.59375 
L 9.421875 64.59375 
z
" id="DejaVuSans-69"/>
      <path d="M 52 44.1875 
Q 55.375 50.25 60.0625 53.125 
Q 64.75 56 71.09375 56 
Q 79.640625 56 84.28125 50.015625 
Q 88.921875 44.046875 88.921875 33.015625 
L 88.921875 0 
L 79.890625 0 
L 79.890625 32.71875 
Q 79.890625 40.578125 77.09375 44.375 
Q 74.3125 48.1875 68.609375 48.1875 
Q 61.625 48.1875 57.5625 43.546875 
Q 53.515625 38.921875 53.515625 30.90625 
L 53.515625 0 
L 44.484375 0 
L 44.484375 32.71875 
Q 44.484375 40.625 41.703125 44.40625 
Q 38.921875 48.1875 33.109375 48.1875 
Q 26.21875 48.1875 22.15625 43.53125 
Q 18.109375 38.875 18.109375 30.90625 
L 18.109375 0 
L 9.078125 0 
L 9.078125 54.6875 
L 18.109375 54.6875 
L 18.109375 46.1875 
Q 21.1875 51.21875 25.484375 53.609375 
Q 29.78125 56 35.6875 56 
Q 41.65625 56 45.828125 52.96875 
Q 50 49.953125 52 44.1875 
z
" id="DejaVuSans-6d"/>
      <path d="M 8.5 21.578125 
L 8.5 54.6875 
L 17.484375 54.6875 
L 17.484375 21.921875 
Q 17.484375 14.15625 20.5 10.265625 
Q 23.53125 6.390625 29.59375 6.390625 
Q 36.859375 6.390625 41.078125 11.03125 
Q 45.3125 15.671875 45.3125 23.6875 
L 45.3125 54.6875 
L 54.296875 54.6875 
L 54.296875 0 
L 45.3125 0 
L 45.3125 8.40625 
Q 42.046875 3.421875 37.71875 1 
Q 33.40625 -1.421875 27.6875 -1.421875 
Q 18.265625 -1.421875 13.375 4.4375 
Q 8.5 10.296875 8.5 21.578125 
z
M 31.109375 56 
z
" id="DejaVuSans-75"/>
      <path id="DejaVuSans-20"/>
      <path d="M 37.109375 75.984375 
L 37.109375 68.5 
L 28.515625 68.5 
Q 23.6875 68.5 21.796875 66.546875 
Q 19.921875 64.59375 19.921875 59.515625 
L 19.921875 54.6875 
L 34.71875 54.6875 
L 34.71875 47.703125 
L 19.921875 47.703125 
L 19.921875 0 
L 10.890625 0 
L 10.890625 47.703125 
L 2.296875 47.703125 
L 2.296875 54.6875 
L 10.890625 54.6875 
L 10.890625 58.5 
Q 10.890625 67.625 15.140625 71.796875 
Q 19.390625 75.984375 28.609375 75.984375 
z
" id="DejaVuSans-66"/>
      <path d="M 41.109375 46.296875 
Q 39.59375 47.171875 37.8125 47.578125 
Q 36.03125 48 33.890625 48 
Q 26.265625 48 22.1875 43.046875 
Q 18.109375 38.09375 18.109375 28.8125 
L 18.109375 0 
L 9.078125 0 
L 9.078125 54.6875 
L 18.109375 54.6875 
L 18.109375 46.1875 
Q 20.953125 51.171875 25.484375 53.578125 
Q 30.03125 56 36.53125 56 
Q 37.453125 56 38.578125 55.875 
Q 39.703125 55.765625 41.0625 55.515625 
z
" id="DejaVuSans-72"/>
      <path d="M 48.78125 52.59375 
L 48.78125 44.1875 
Q 44.96875 46.296875 41.140625 47.34375 
Q 37.3125 48.390625 33.40625 48.390625 
Q 24.65625 48.390625 19.8125 42.84375 
Q 14.984375 37.3125 14.984375 27.296875 
Q 14.984375 17.28125 19.8125 11.734375 
Q 24.65625 6.203125 33.40625 6.203125 
Q 37.3125 6.203125 41.140625 7.25 
Q 44.96875 8.296875 48.78125 10.40625 
L 48.78125 2.09375 
Q 45.015625 0.34375 40.984375 -0.53125 
Q 36.96875 -1.421875 32.421875 -1.421875 
Q 20.0625 -1.421875 12.78125 6.34375 
Q 5.515625 14.109375 5.515625 27.296875 
Q 5.515625 40.671875 12.859375 48.328125 
Q 20.21875 56 33.015625 56 
Q 37.15625 56 41.109375 55.140625 
Q 45.0625 54.296875 48.78125 52.59375 
z
" id="DejaVuSans-63"/>
      <path d="M 18.3125 70.21875 
L 18.3125 54.6875 
L 36.8125 54.6875 
L 36.8125 47.703125 
L 18.3125 47.703125 
L 18.3125 18.015625 
Q 18.3125 11.328125 20.140625 9.421875 
Q 21.96875 7.515625 27.59375 7.515625 
L 36.8125 7.515625 
L 36.8125 0 
L 27.59375 0 
Q 17.1875 0 13.234375 3.875 
Q 9.28125 7.765625 9.28125 18.015625 
L 9.28125 47.703125 
L 2.6875 47.703125 
L 2.6875 54.6875 
L 9.28125 54.6875 
L 9.28125 70.21875 
z
" id="DejaVuSans-74"/>
      <path d="M 30.609375 48.390625 
Q 23.390625 48.390625 19.1875 42.75 
Q 14.984375 37.109375 14.984375 27.296875 
Q 14.984375 17.484375 19.15625 11.84375 
Q 23.34375 6.203125 30.609375 6.203125 
Q 37.796875 6.203125 41.984375 11.859375 
Q 46.1875 17.53125 46.1875 27.296875 
Q 46.1875 37.015625 41.984375 42.703125 
Q 37.796875 48.390625 30.609375 48.390625 
z
M 30.609375 56 
Q 42.328125 56 49.015625 48.375 
Q 55.71875 40.765625 55.71875 27.296875 
Q 55.71875 13.875 49.015625 6.21875 
Q 42.328125 -1.421875 30.609375 -1.421875 
Q 18.84375 -1.421875 12.171875 6.21875 
Q 5.515625 13.875 5.515625 27.296875 
Q 5.515625 40.765625 12.171875 48.375 
Q 18.84375 56 30.609375 56 
z
" id="DejaVuSans-6f"/>
      <path d="M 54.890625 33.015625 
L 54.890625 0 
L 45.90625 0 
L 45.90625 32.71875 
Q 45.90625 40.484375 42.875 44.328125 
Q 39.84375 48.1875 33.796875 48.1875 
Q 26.515625 48.1875 22.3125 43.546875 
Q 18.109375 38.921875 18.109375 30.90625 
L 18.109375 0 
L 9.078125 0 
L 9.078125 54.6875 
L 18.109375 54.6875 
L 18.109375 46.1875 
Q 21.34375 51.125 25.703125 53.5625 
Q 30.078125 56 35.796875 56 
Q 45.21875 56 50.046875 50.171875 
Q 54.890625 44.34375 54.890625 33.015625 
z
" id="DejaVuSans-6e"/>
      <path d="M 9.421875 75.984375 
L 18.40625 75.984375 
L 18.40625 0 
L 9.421875 0 
z
" id="DejaVuSans-6c"/>
      <path d="M 56.203125 29.59375 
L 56.203125 25.203125 
L 14.890625 25.203125 
Q 15.484375 15.921875 20.484375 11.0625 
Q 25.484375 6.203125 34.421875 6.203125 
Q 39.59375 6.203125 44.453125 7.46875 
Q 49.3125 8.734375 54.109375 11.28125 
L 54.109375 2.78125 
Q 49.265625 0.734375 44.1875 -0.34375 
Q 39.109375 -1.421875 33.890625 -1.421875 
Q 20.796875 -1.421875 13.15625 6.1875 
Q 5.515625 13.8125 5.515625 26.8125 
Q 5.515625 40.234375 12.765625 48.109375 
Q 20.015625 56 32.328125 56 
Q 43.359375 56 49.78125 48.890625 
Q 56.203125 41.796875 56.203125 29.59375 
z
M 47.21875 32.234375 
Q 47.125 39.59375 43.09375 43.984375 
Q 39.0625 48.390625 32.421875 48.390625 
Q 24.90625 48.390625 20.390625 44.140625 
Q 15.875 39.890625 15.1875 32.171875 
z
" id="DejaVuSans-65"/>
      <path d="M 18.109375 8.203125 
L 18.109375 -20.796875 
L 9.078125 -20.796875 
L 9.078125 54.6875 
L 18.109375 54.6875 
L 18.109375 46.390625 
Q 20.953125 51.265625 25.265625 53.625 
Q 29.59375 56 35.59375 56 
Q 45.5625 56 51.78125 48.09375 
Q 58.015625 40.1875 58.015625 27.296875 
Q 58.015625 14.40625 51.78125 6.484375 
Q 45.5625 -1.421875 35.59375 -1.421875 
Q 29.59375 -1.421875 25.265625 0.953125 
Q 20.953125 3.328125 18.109375 8.203125 
z
M 48.6875 27.296875 
Q 48.6875 37.203125 44.609375 42.84375 
Q 40.53125 48.484375 33.40625 48.484375 
Q 26.265625 48.484375 22.1875 42.84375 
Q 18.109375 37.203125 18.109375 27.296875 
Q 18.109375 17.390625 22.1875 11.75 
Q 26.265625 6.109375 33.40625 6.109375 
Q 40.53125 6.109375 44.609375 11.75 
Q 48.6875 17.390625 48.6875 27.296875 
z
" id="DejaVuSans-70"/>
      <path d="M 44.28125 53.078125 
L 44.28125 44.578125 
Q 40.484375 46.53125 36.375 47.5 
Q 32.28125 48.484375 27.875 48.484375 
Q 21.1875 48.484375 17.84375 46.4375 
Q 14.5 44.390625 14.5 40.28125 
Q 14.5 37.15625 16.890625 35.375 
Q 19.28125 33.59375 26.515625 31.984375 
L 29.59375 31.296875 
Q 39.15625 29.25 43.1875 25.515625 
Q 47.21875 21.78125 47.21875 15.09375 
Q 47.21875 7.46875 41.1875 3.015625 
Q 35.15625 -1.421875 24.609375 -1.421875 
Q 20.21875 -1.421875 15.453125 -0.5625 
Q 10.6875 0.296875 5.421875 2 
L 5.421875 11.28125 
Q 10.40625 8.6875 15.234375 7.390625 
Q 20.0625 6.109375 24.8125 6.109375 
Q 31.15625 6.109375 34.5625 8.28125 
Q 37.984375 10.453125 37.984375 14.40625 
Q 37.984375 18.0625 35.515625 20.015625 
Q 33.0625 21.96875 24.703125 23.78125 
L 21.578125 24.515625 
Q 13.234375 26.265625 9.515625 29.90625 
Q 5.8125 33.546875 5.8125 39.890625 
Q 5.8125 47.609375 11.28125 51.796875 
Q 16.75 56 26.8125 56 
Q 31.78125 56 36.171875 55.265625 
Q 40.578125 54.546875 44.28125 53.078125 
z
" id="DejaVuSans-73"/>
     </defs>
     <g transform="translate(110.611719 280.276563)scale(0.1 -0.1)">
      <use xlink:href="#DejaVuSans-4d"/>
      <use x="86.279297" xlink:href="#DejaVuSans-61"/>
      <use x="147.558594" xlink:href="#DejaVuSans-78"/>
      <use x="206.738281" xlink:href="#DejaVuSans-69"/>
      <use x="234.521484" xlink:href="#DejaVuSans-6d"/>
      <use x="331.933594" xlink:href="#DejaVuSans-75"/>
      <use x="395.3125" xlink:href="#DejaVuSans-6d"/>
      <use x="492.724609" xlink:href="#DejaVuSans-20"/>
      <use x="524.511719" xlink:href="#DejaVuSans-66"/>
      <use x="559.716797" xlink:href="#DejaVuSans-72"/>
      <use x="600.830078" xlink:href="#DejaVuSans-61"/>
      <use x="662.109375" xlink:href="#DejaVuSans-63"/>
      <use x="717.089844" xlink:href="#DejaVuSans-74"/>
      <use x="756.298828" xlink:href="#DejaVuSans-69"/>
      <use x="784.082031" xlink:href="#DejaVuSans-6f"/>
      <use x="845.263672" xlink:href="#DejaVuSans-6e"/>
      <use x="908.642578" xlink:href="#DejaVuSans-20"/>
      <use x="940.429688" xlink:href="#DejaVuSans-6f"/>
      <use x="1001.611328" xlink:href="#DejaVuSans-66"/>
      <use x="1036.816406" xlink:href="#DejaVuSans-20"/>
      <use x="1068.603516" xlink:href="#DejaVuSans-6d"/>
      <use x="1166.015625" xlink:href="#DejaVuSans-6f"/>
      <use x="1227.197266" xlink:href="#DejaVuSans-6e"/>
      <use x="1290.576172" xlink:href="#DejaVuSans-6f"/>
      <use x="1351.757812" xlink:href="#DejaVuSans-61"/>
      <use x="1413.037109" xlink:href="#DejaVuSans-6c"/>
      <use x="1440.820312" xlink:href="#DejaVuSans-6c"/>
      <use x="1468.603516" xlink:href="#DejaVuSans-65"/>
      <use x="1530.126953" xlink:href="#DejaVuSans-6c"/>
      <use x="1557.910156" xlink:href="#DejaVuSans-69"/>
      <use x="1585.693359" xlink:href="#DejaVuSans-63"/>
      <use x="1640.673828" xlink:href="#DejaVuSans-20"/>
      <use x="1672.460938" xlink:href="#DejaVuSans-65"/>
      <use x="1733.96875" xlink:href="#DejaVuSans-78"/>
      <use x="1793.148438" xlink:href="#DejaVuSans-70"/>
      <use x="1856.625" xlink:href="#DejaVuSans-72"/>
      <use x="1897.707031" xlink:href="#DejaVuSans-65"/>
      <use x="1959.230469" xlink:href="#DejaVuSans-73"/>
      <use x="2011.330078" xlink:href="#DejaVuSans-73"/>
      <use x="2063.429688" xlink:href="#DejaVuSans-69"/>
      <use x="2091.212891" xlink:href="#DejaVuSans-6f"/>
      <use x="2152.394531" xlink:href="#DejaVuSans-6e"/>
     </g>
    </g>
   </g>
   <g id="matplotlib.axis_2">
    <g id="ytick_1">
     <g id="line2d_7">
      <defs>
       <path d="M 0 0 
L -3.5 0 
" id="mc9ce62863f" style="stroke:#000000;stroke-width:0.8;"/>
      </defs>
      <g>
       <use style="stroke:#000000;stroke-width:0.8;" x="54" xlink:href="#mc9ce62863f" y="242.156672"/>
      </g>
     </g>
     <g id="text_8">
      <!-- 0 -->
      <g transform="translate(40.6375 245.955891)scale(0.1 -0.1)">
       <use xlink:href="#DejaVuSans-30"/>
      </g>
     </g>
    </g>
    <g id="ytick_2">
     <g id="line2d_8">
      <g>
       <use style="stroke:#000000;stroke-width:0.8;" x="54" xlink:href="#mc9ce62863f" y="201.848204"/>
      </g>
     </g>
     <g id="text_9">
      <!-- 1000 -->
      <g transform="translate(21.55 205.647423)scale(0.1 -0.1)">
       <use xlink:href="#DejaVuSans-31"/>
       <use x="63.623047" xlink:href="#DejaVuSans-30"/>
       <use x="127.246094" xlink:href="#DejaVuSans-30"/>
       <use x="190.869141" xlink:href="#DejaVuSans-30"/>
      </g>
     </g>
    </g>
    <g id="ytick_3">
     <g id="line2d_9">
      <g>
       <use style="stroke:#000000;stroke-width:0.8;" x="54" xlink:href="#mc9ce62863f" y="161.539736"/>
      </g>
     </g>
     <g id="text_10">
      <!-- 2000 -->
      <defs>
       <path d="M 19.1875 8.296875 
L 53.609375 8.296875 
L 53.609375 0 
L 7.328125 0 
L 7.328125 8.296875 
Q 12.9375 14.109375 22.625 23.890625 
Q 32.328125 33.6875 34.8125 36.53125 
Q 39.546875 41.84375 41.421875 45.53125 
Q 43.3125 49.21875 43.3125 52.78125 
Q 43.3125 58.59375 39.234375 62.25 
Q 35.15625 65.921875 28.609375 65.921875 
Q 23.96875 65.921875 18.8125 64.3125 
Q 13.671875 62.703125 7.8125 59.421875 
L 7.8125 69.390625 
Q 13.765625 71.78125 18.9375 73 
Q 24.125 74.21875 28.421875 74.21875 
Q 39.75 74.21875 46.484375 68.546875 
Q 53.21875 62.890625 53.21875 53.421875 
Q 53.21875 48.921875 51.53125 44.890625 
Q 49.859375 40.875 45.40625 35.40625 
Q 44.1875 33.984375 37.640625 27.21875 
Q 31.109375 20.453125 19.1875 8.296875 
z
" id="DejaVuSans-32"/>
      </defs>
      <g transform="translate(21.55 165.338955)scale(0.1 -0.1)">
       <use xlink:href="#DejaVuSans-32"/>
       <use x="63.623047" xlink:href="#DejaVuSans-30"/>
       <use x="127.246094" xlink:href="#DejaVuSans-30"/>
       <use x="190.869141" xlink:href="#DejaVuSans-30"/>
      </g>
     </g>
    </g>
    <g id="ytick_4">
     <g id="line2d_10">
      <g>
       <use style="stroke:#000000;stroke-width:0.8;" x="54" xlink:href="#mc9ce62863f" y="121.231268"/>
      </g>
     </g>
     <g id="text_11">
      <!-- 3000 -->
      <defs>
       <path d="M 40.578125 39.3125 
Q 47.65625 37.796875 51.625 33 
Q 55.609375 28.21875 55.609375 21.1875 
Q 55.609375 10.40625 48.1875 4.484375 
Q 40.765625 -1.421875 27.09375 -1.421875 
Q 22.515625 -1.421875 17.65625 -0.515625 
Q 12.796875 0.390625 7.625 2.203125 
L 7.625 11.71875 
Q 11.71875 9.328125 16.59375 8.109375 
Q 21.484375 6.890625 26.8125 6.890625 
Q 36.078125 6.890625 40.9375 10.546875 
Q 45.796875 14.203125 45.796875 21.1875 
Q 45.796875 27.640625 41.28125 31.265625 
Q 36.765625 34.90625 28.71875 34.90625 
L 20.21875 34.90625 
L 20.21875 43.015625 
L 29.109375 43.015625 
Q 36.375 43.015625 40.234375 45.921875 
Q 44.09375 48.828125 44.09375 54.296875 
Q 44.09375 59.90625 40.109375 62.90625 
Q 36.140625 65.921875 28.71875 65.921875 
Q 24.65625 65.921875 20.015625 65.03125 
Q 15.375 64.15625 9.8125 62.3125 
L 9.8125 71.09375 
Q 15.4375 72.65625 20.34375 73.4375 
Q 25.25 74.21875 29.59375 74.21875 
Q 40.828125 74.21875 47.359375 69.109375 
Q 53.90625 64.015625 53.90625 55.328125 
Q 53.90625 49.265625 50.4375 45.09375 
Q 46.96875 40.921875 40.578125 39.3125 
z
" id="DejaVuSans-33"/>
      </defs>
      <g transform="translate(21.55 125.030487)scale(0.1 -0.1)">
       <use xlink:href="#DejaVuSans-33"/>
       <use x="63.623047" xlink:href="#DejaVuSans-30"/>
       <use x="127.246094" xlink:href="#DejaVuSans-30"/>
       <use x="190.869141" xlink:href="#DejaVuSans-30"/>
      </g>
     </g>
    </g>
    <g id="ytick_5">
     <g id="line2d_11">
      <g>
       <use style="stroke:#000000;stroke-width:0.8;" x="54" xlink:href="#mc9ce62863f" y="80.9228"/>
      </g>
     </g>
     <g id="text_12">
      <!-- 4000 -->
      <defs>
       <path d="M 37.796875 64.3125 
L 12.890625 25.390625 
L 37.796875 25.390625 
z
M 35.203125 72.90625 
L 47.609375 72.90625 
L 47.609375 25.390625 
L 58.015625 25.390625 
L 58.015625 17.1875 
L 47.609375 17.1875 
L 47.609375 0 
L 37.796875 0 
L 37.796875 17.1875 
L 4.890625 17.1875 
L 4.890625 26.703125 
z
" id="DejaVuSans-34"/>
      </defs>
      <g transform="translate(21.55 84.722019)scale(0.1 -0.1)">
       <use xlink:href="#DejaVuSans-34"/>
       <use x="63.623047" xlink:href="#DejaVuSans-30"/>
       <use x="127.246094" xlink:href="#DejaVuSans-30"/>
       <use x="190.869141" xlink:href="#DejaVuSans-30"/>
      </g>
     </g>
    </g>
    <g id="ytick_6">
     <g id="line2d_12">
      <g>
       <use style="stroke:#000000;stroke-width:0.8;" x="54" xlink:href="#mc9ce62863f" y="40.614332"/>
      </g>
     </g>
     <g id="text_13">
      <!-- 5000 -->
      <g transform="translate(21.55 44.413551)scale(0.1 -0.1)">
       <use xlink:href="#DejaVuSans-35"/>
       <use x="63.623047" xlink:href="#DejaVuSans-30"/>
       <use x="127.246094" xlink:href="#DejaVuSans-30"/>
       <use x="190.869141" xlink:href="#DejaVuSans-30"/>
      </g>
     </g>
    </g>
    <g id="text_14">
     <!-- Cumulative frequency -->
     <defs>
      <path d="M 64.40625 67.28125 
L 64.40625 56.890625 
Q 59.421875 61.53125 53.78125 63.8125 
Q 48.140625 66.109375 41.796875 66.109375 
Q 29.296875 66.109375 22.65625 58.46875 
Q 16.015625 50.828125 16.015625 36.375 
Q 16.015625 21.96875 22.65625 14.328125 
Q 29.296875 6.6875 41.796875 6.6875 
Q 48.140625 6.6875 53.78125 8.984375 
Q 59.421875 11.28125 64.40625 15.921875 
L 64.40625 5.609375 
Q 59.234375 2.09375 53.4375 0.328125 
Q 47.65625 -1.421875 41.21875 -1.421875 
Q 24.65625 -1.421875 15.125 8.703125 
Q 5.609375 18.84375 5.609375 36.375 
Q 5.609375 53.953125 15.125 64.078125 
Q 24.65625 74.21875 41.21875 74.21875 
Q 47.75 74.21875 53.53125 72.484375 
Q 59.328125 70.75 64.40625 67.28125 
z
" id="DejaVuSans-43"/>
      <path d="M 2.984375 54.6875 
L 12.5 54.6875 
L 29.59375 8.796875 
L 46.6875 54.6875 
L 56.203125 54.6875 
L 35.6875 0 
L 23.484375 0 
z
" id="DejaVuSans-76"/>
      <path d="M 14.796875 27.296875 
Q 14.796875 17.390625 18.875 11.75 
Q 22.953125 6.109375 30.078125 6.109375 
Q 37.203125 6.109375 41.296875 11.75 
Q 45.40625 17.390625 45.40625 27.296875 
Q 45.40625 37.203125 41.296875 42.84375 
Q 37.203125 48.484375 30.078125 48.484375 
Q 22.953125 48.484375 18.875 42.84375 
Q 14.796875 37.203125 14.796875 27.296875 
z
M 45.40625 8.203125 
Q 42.578125 3.328125 38.25 0.953125 
Q 33.9375 -1.421875 27.875 -1.421875 
Q 17.96875 -1.421875 11.734375 6.484375 
Q 5.515625 14.40625 5.515625 27.296875 
Q 5.515625 40.1875 11.734375 48.09375 
Q 17.96875 56 27.875 56 
Q 33.9375 56 38.25 53.625 
Q 42.578125 51.265625 45.40625 46.390625 
L 45.40625 54.6875 
L 54.390625 54.6875 
L 54.390625 -20.796875 
L 45.40625 -20.796875 
z
" id="DejaVuSans-71"/>
      <path d="M 32.171875 -5.078125 
Q 28.375 -14.84375 24.75 -17.8125 
Q 21.140625 -20.796875 15.09375 -20.796875 
L 7.90625 -20.796875 
L 7.90625 -13.28125 
L 13.1875 -13.28125 
Q 16.890625 -13.28125 18.9375 -11.515625 
Q 21 -9.765625 23.484375 -3.21875 
L 25.09375 0.875 
L 2.984375 54.6875 
L 12.5 54.6875 
L 29.59375 11.921875 
L 46.6875 54.6875 
L 56.203125 54.6875 
z
" id="DejaVuSans-79"/>
     </defs>
     <g transform="translate(15.470312 198.594063)rotate(-90)scale(0.1 -0.1)">
      <use xlink:href="#DejaVuSans-43"/>
      <use x="69.824219" xlink:href="#DejaVuSans-75"/>
      <use x="133.203125" xlink:href="#DejaVuSans-6d"/>
      <use x="230.615234" xlink:href="#DejaVuSans-75"/>
      <use x="293.994141" xlink:href="#DejaVuSans-6c"/>
      <use x="321.777344" xlink:href="#DejaVuSans-61"/>
      <use x="383.056641" xlink:href="#DejaVuSans-74"/>
      <use x="422.265625" xlink:href="#DejaVuSans-69"/>
      <use x="450.048828" xlink:href="#DejaVuSans-76"/>
      <use x="509.228516" xlink:href="#DejaVuSans-65"/>
      <use x="570.751953" xlink:href="#DejaVuSans-20"/>
      <use x="602.539062" xlink:href="#DejaVuSans-66"/>
      <use x="637.744141" xlink:href="#DejaVuSans-72"/>
      <use x="678.826172" xlink:href="#DejaVuSans-65"/>
      <use x="740.349609" xlink:href="#DejaVuSans-71"/>
      <use x="803.826172" xlink:href="#DejaVuSans-75"/>
      <use x="867.205078" xlink:href="#DejaVuSans-65"/>
      <use x="928.728516" xlink:href="#DejaVuSans-6e"/>
      <use x="992.107422" xlink:href="#DejaVuSans-63"/>
      <use x="1047.087891" xlink:href="#DejaVuSans-79"/>
     </g>
    </g>
   </g>
   <g id="line2d_13">
    <path clip-path="url(#pa37823b685)" d="M 69.218182 216.96388 
L 69.218182 211.038535 
L 103.036364 198.0189 
L 112.698701 185.765125 
L 130.090909 162.950532 
L 145.309091 151.099843 
L 170.672727 132.396714 
L 170.672727 122.722681 
L 190.963636 116.998879 
L 199.65974 108.81626 
L 221.4 95.554774 
L 238.309091 91.483619 
L 251.836364 83.945935 
L 272.127273 79.915088 
L 286.620779 77.536889 
L 297.490909 75.440848 
L 305.945455 74.674987 
L 312.709091 74.271903 
L 373.581818 70.805374 
L 373.581818 66.129592 
L 373.581818 50.65114 
" style="fill:none;stroke:#1f77b4;stroke-linecap:square;stroke-width:1.5;"/>
   </g>
   <g id="line2d_14">
    <path clip-path="url(#pa37823b685)" d="M 69.218182 239.617239 
L 69.218182 221.478428 
L 69.218182 217.044497 
L 85.237321 212.449331 
L 87.121925 207.249539 
L 89.509091 202.130363 
L 92.630769 197.21273 
L 96.887603 193.02065 
L 99.654545 190.239365 
L 103.036364 181.210268 
L 107.263636 175.929859 
L 112.698701 166.537986 
L 117.275598 162.104055 
L 119.945455 158.234442 
L 122.929412 154.002052 
L 130.090909 139.32977 
L 136.854545 135.984167 
L 139.455944 132.074246 
L 145.309091 124.899339 
L 149.313876 122.23898 
L 152.226446 118.490292 
L 156.179221 115.749316 
L 158.736898 113.008341 
L 160.527273 111.396002 
L 170.672727 99.101919 
L 170.672727 93.619967 
L 181.352153 92.571947 
L 183.354545 91.120842 
L 186.281119 89.468195 
L 190.963636 86.686911 
L 194.544385 84.87303 
L 199.65974 80.801875 
L 204.490909 79.391078 
L 207.565289 77.49658 
L 211.254545 76.287326 
L 213.390431 75.964858 
L 221.4 72.941723 
L 221.4 71.530927 
L 221.4 68.709334 
L 230.351872 68.225633 
L 233.106294 67.661314 
L 238.309091 67.459772 
L 238.309091 66.048975 
L 243.14026 65.323423 
L 245.428708 65.12188 
L 251.836364 64.839721 
L 251.836364 61.494118 
L 259.445455 61.252268 
L 262.904132 60.728257 
L 266.159358 60.486407 
L 272.127273 58.954685 
L 272.127273 58.591909 
L 277.466986 58.5516 
L 279.931469 58.350058 
L 282.272727 58.309749 
L 286.620779 57.261729 
L 292.418182 57.181112 
L 297.490909 56.616794 
L 305.945455 56.294326 
L 312.709091 56.092784 
L 318.242975 56.012167 
L 330.101299 55.971858 
L 333 55.93155 
L 373.581818 52.626255 
L 373.581818 51.013917 
L 373.581818 50.248056 
L 373.581818 47.063687 
" style="fill:none;stroke:#ff7f0e;stroke-linecap:square;stroke-width:1.5;"/>
   </g>
   <g id="line2d_15">
    <path clip-path="url(#pa37823b685)" d="M 69.218182 241.390811 
L 69.218182 226.799146 
L 75.429685 226.073593 
L 75.981818 223.131075 
L 77.444226 216.762337 
L 78.441322 213.53766 
L 79.036364 212.167172 
L 80.490909 209.829281 
L 81.392727 208.055708 
L 81.9 206.725529 
L 82.451383 203.662085 
L 83.052893 202.694682 
L 83.711688 201.888513 
L 83.711688 200.235865 
L 84.436364 198.986303 
L 85.237321 196.68872 
L 86.127273 195.6407 
L 87.121925 192.819107 
L 87.85269 191.811396 
L 88.240909 190.360291 
L 88.645648 189.312271 
L 89.509091 188.344867 
L 89.509091 185.402349 
L 90.452854 184.031861 
L 90.958442 182.822607 
L 91.488692 181.008726 
L 92.630769 179.759164 
L 92.630769 177.340655 
L 93.567273 176.615103 
L 93.896314 175.446157 
L 94.581818 173.471043 
L 95.306494 171.939321 
L 95.684585 170.730067 
L 96.887603 169.802972 
L 96.887603 166.054284 
L 98.205195 165.207807 
L 98.672727 163.756702 
L 99.654545 161.338194 
L 100.275696 160.572333 
L 100.704075 159.484004 
L 101.597292 157.831357 
L 103.036364 156.460869 
L 103.036364 152.873415 
L 104.609302 151.825395 
L 105.025668 150.65645 
L 105.741818 149.245653 
L 106.335698 148.358867 
L 107.263636 147.391464 
L 107.263636 145.255115 
L 108.239161 144.045861 
L 108.917787 142.957532 
L 108.917787 141.788587 
L 109.8 140.740567 
L 110.722314 139.007302 
L 112.698701 134.734605 
L 112.698701 133.162575 
L 114.548936 132.678873 
L 115.333884 130.179748 
L 116.043357 129.413887 
L 116.563636 128.406175 
L 117.275598 126.632603 
L 117.916364 126.269826 
L 118.765751 124.294712 
L 119.945455 120.183248 
L 121.182705 119.296462 
L 121.694671 118.248441 
L 122.150988 117.76474 
L 122.929412 115.870242 
L 124.557025 114.701296 
L 124.557025 113.693584 
L 125.121707 113.371117 
L 125.581818 112.685873 
L 126.800491 111.43631 
L 127.50058 110.106131 
L 130.090909 109.299961 
L 130.090909 103.656776 
L 132.627273 103.01184 
L 133.294737 101.560736 
L 134.438961 99.585621 
L 135.38419 99.142227 
L 135.38419 98.577909 
L 136.029712 97.973282 
L 136.854545 96.481869 
L 137.544712 96.199709 
L 137.945455 95.433848 
L 138.391736 94.829221 
L 139.455944 93.942435 
L 139.455944 92.330096 
L 140.833155 91.322385 
L 141.685714 90.637141 
L 141.685714 90.435598 
L 142.685266 90.072822 
L 143.618182 89.06511 
L 145.309091 87.896165 
L 145.309091 85.034264 
L 147.078647 84.711796 
L 148.617391 83.301 
L 149.313876 81.97082 
L 149.967718 81.809586 
L 150.876718 81.245268 
L 152.226446 79.149227 
L 153.403868 79.028302 
L 153.763636 78.665526 
L 154.44 78.181824 
L 155.064336 77.980282 
L 156.179221 76.932262 
L 156.179221 76.730719 
L 157.145455 76.408252 
L 157.990909 75.843933 
L 158.736898 74.634679 
L 159.704668 74.392828 
L 160.527273 73.385116 
L 161.850593 73.02234 
L 161.850593 72.780489 
L 162.390724 72.659564 
L 162.868531 72.135554 
L 163.675862 71.732469 
L 164.875325 70.765066 
L 166.061157 70.241056 
L 166.614545 70.079822 
L 170.672727 69.07211 
L 170.672727 64.154477 
L 174.813729 64.114169 
L 176.156757 63.630467 
L 177.218182 63.187074 
L 177.919481 62.824298 
L 179.895868 62.380905 
L 179.895868 62.058437 
L 180.570732 61.776278 
L 181.352153 61.252268 
L 183.354545 61.131342 
L 183.354545 60.567024 
L 184.2 60.526715 
L 184.666458 60.244556 
L 186.281119 59.519003 
L 187.581818 59.478695 
L 189.547992 58.914376 
L 190.963636 58.874068 
L 190.963636 57.987282 
L 192.608845 57.946973 
L 193.730579 57.624505 
L 194.544385 57.181112 
L 199.65974 56.657102 
L 199.65974 55.40754 
L 202.377273 55.326923 
L 205.657053 54.762604 
L 207.565289 54.117669 
L 209.693706 54.07736 
L 213.390431 53.593659 
L 215.763636 53.472733 
L 221.4 52.827798 
L 221.4 51.417001 
L 227.487273 51.296076 
L 230.351872 51.054225 
L 231.545455 51.013917 
L 233.106294 50.812374 
L 235.234711 50.731757 
L 238.309091 50.368981 
L 238.309091 50.248056 
L 251.836364 49.88528 
L 251.836364 48.917876 
L 259.445455 48.756642 
L 266.159358 48.635717 
L 272.127273 48.03109 
L 279.931469 47.950473 
L 286.620779 47.628005 
L 305.945455 47.426463 
L 312.709091 47.305538 
L 373.581818 45.290114 
L 373.581818 44.967646 
L 373.581818 44.967646 
" style="fill:none;stroke:#2ca02c;stroke-linecap:square;stroke-width:1.5;"/>
   </g>
   <g id="line2d_16">
    <path clip-path="url(#pa37823b685)" d="M 69.218182 241.713279 
L 69.218182 231.515237 
L 72.292562 231.233077 
L 73.170956 225.348041 
L 73.629249 222.647374 
L 73.900699 221.760587 
L 75.186096 218.818069 
L 75.305455 218.697144 
L 75.694004 216.802646 
L 75.981818 215.956168 
L 75.981818 215.432158 
L 76.296406 214.343829 
L 76.296406 213.779511 
L 76.464935 213.255501 
L 77.022378 210.514525 
L 77.914286 208.096017 
L 78.441322 207.249539 
L 78.441322 206.523986 
L 78.729545 205.838742 
L 78.829665 205.153498 
L 79.036364 204.669797 
L 79.036364 203.621777 
L 79.71348 201.324194 
L 79.71348 201.001726 
L 80.088312 200.034323 
L 80.490909 198.54291 
L 80.924476 197.615815 
L 81.076505 197.293347 
L 81.392727 195.479466 
L 81.641187 195.11669 
L 81.9 193.625277 
L 82.078617 193.302809 
L 82.451383 190.64245 
L 82.745455 190.279674 
L 83.37463 187.417773 
L 83.711688 187.054996 
L 83.711688 186.208518 
L 84.065188 185.845742 
L 84.907029 183.386926 
L 85.237321 180.887801 
L 85.581818 180.64595 
L 85.941459 179.839781 
L 86.317263 177.945283 
L 86.710345 176.010476 
L 87.121925 175.526774 
L 87.121925 173.672585 
L 87.48 173.591968 
L 87.664463 172.785799 
L 88.240909 170.367291 
L 88.481703 170.085131 
L 88.645648 169.278962 
L 88.854545 168.916186 
L 89.067984 168.029399 
L 89.509091 167.142613 
L 89.509091 165.207807 
L 89.970248 165.086881 
L 90.208777 164.482254 
L 90.452854 164.32102 
L 90.452854 163.917936 
L 90.738843 163.232692 
L 90.958442 161.741278 
L 91.273518 161.257577 
L 92.630769 157.186421 
L 92.630769 156.057784 
L 93.156895 155.735317 
L 93.896314 152.954032 
L 94.064193 152.873415 
L 94.887404 150.011514 
L 95.684585 147.75424 
L 96.187112 146.665911 
L 96.887603 144.972956 
L 96.887603 142.554448 
L 97.458107 142.272288 
L 97.625455 141.224268 
L 98.672727 138.201133 
L 98.672727 137.193421 
L 99.057754 136.629103 
L 99.654545 135.460157 
L 99.654545 134.936147 
L 99.996527 134.492754 
L 100.095652 134.009052 
L 100.434965 133.404425 
L 100.704075 132.477331 
L 100.922727 132.316097 
L 101.256459 130.945609 
L 101.44492 130.623141 
L 101.597292 129.736355 
L 102.122359 128.648026 
L 102.301186 127.962782 
L 103.036364 126.632603 
L 103.036364 124.697796 
L 103.733646 124.536562 
L 104.337063 123.125766 
L 104.609302 122.561447 
L 104.609302 122.279288 
L 104.793152 122.077746 
L 105.025668 121.513427 
L 105.329122 121.19096 
L 105.451948 120.747566 
L 105.741818 120.586332 
L 105.741818 119.820472 
L 106.110744 119.377078 
L 106.742466 117.925974 
L 106.836159 117.684123 
L 107.263636 117.321347 
L 107.263636 115.709008 
L 107.70094 115.426849 
L 107.955372 114.741605 
L 108.073114 114.580371 
L 108.239161 114.016052 
L 108.490909 113.572659 
L 108.917787 113.330808 
L 108.917787 112.564947 
L 109.185124 112.48433 
L 109.417153 111.678161 
L 109.8 111.194459 
L 109.8 110.831683 
L 110.009185 110.751066 
L 111.360839 107.526389 
L 111.490909 107.284538 
L 111.829091 106.276826 
L 112.698701 103.777701 
L 112.698701 102.004129 
L 113.604545 101.883203 
L 113.97754 100.794875 
L 114.124292 100.754566 
L 115.081196 99.021302 
L 115.333884 98.980994 
L 115.333884 98.29575 
L 115.534387 98.134516 
L 116.043357 97.086496 
L 116.284724 97.005879 
L 116.563636 96.159401 
L 116.775 95.91755 
L 116.889595 95.595082 
L 117.275598 95.272615 
L 117.275598 94.305211 
L 117.739921 93.781201 
L 118.309091 92.531639 
L 118.765751 92.088246 
L 118.765751 91.96732 
L 119.188331 91.564236 
L 119.388012 91.241768 
L 119.945455 89.06511 
L 120.515424 88.82326 
L 120.725874 88.178324 
L 121.182705 87.77524 
L 121.694671 87.170612 
L 121.694671 87.009379 
L 122.361039 86.525677 
L 122.560262 86.162901 
L 122.929412 85.92105 
L 122.929412 85.235806 
L 123.327273 85.074572 
L 123.568831 84.550562 
L 123.683254 84.389328 
L 123.847552 83.905627 
L 124.003636 83.865318 
L 124.223658 83.462233 
L 124.557025 83.341308 
L 124.557025 82.696373 
L 125.121707 82.293288 
L 125.285167 82.132054 
L 125.581818 81.487118 
L 126.077323 81.245268 
L 126.286364 81.084034 
L 126.286364 80.882491 
L 126.562055 80.680949 
L 126.800491 80.277864 
L 127.008746 80.237556 
L 127.631405 79.471695 
L 127.74965 79.189536 
L 127.955024 79.028302 
L 128.835801 77.738431 
L 130.090909 77.295038 
L 130.090909 74.110669 
L 131.33321 74.07036 
L 132.387993 73.02234 
L 133.780165 71.651852 
L 133.780165 71.329385 
L 134.714154 70.805374 
L 135.11134 70.644141 
L 135.38419 70.361981 
L 135.38419 70.039514 
L 136.178182 69.757354 
L 136.415348 69.475195 
L 136.498565 69.394578 
L 136.854545 69.233344 
L 136.854545 68.951185 
L 137.252406 68.870568 
L 137.544712 68.5481 
L 138.968182 67.862856 
L 139.455944 67.741931 
L 139.455944 66.855145 
L 140.097385 66.774528 
L 141.685714 66.169901 
L 141.685714 65.686199 
L 142.000791 65.645891 
L 142.265455 65.323423 
L 142.419563 65.283114 
L 143.25258 64.718796 
L 143.618182 64.638179 
L 143.618182 64.517253 
L 143.756215 64.476945 
L 143.873413 64.315711 
L 145.309091 63.711084 
L 145.309091 62.703372 
L 146.225849 62.542139 
L 147.483117 61.735969 
L 147.763636 61.655352 
L 148.436115 61.211959 
L 149.313876 61.010417 
L 149.313876 60.728257 
L 150.667606 60.40579 
L 151.162238 60.083322 
L 151.478624 60.002705 
L 152.226446 59.922088 
L 152.226446 59.07561 
L 153.180564 58.994993 
L 154.44 58.350058 
L 155.642424 57.987282 
L 155.721531 57.946973 
L 156.179221 57.221421 
L 157.581818 57.019878 
L 158.736898 56.818336 
L 158.736898 56.616794 
L 160.213496 56.415251 
L 160.527273 56.294326 
L 160.527273 56.092784 
L 161.235095 55.971858 
L 161.449587 55.891241 
L 161.850593 55.568774 
L 163.675862 55.326923 
L 164.331818 55.165689 
L 164.331818 55.044763 
L 167.68877 54.399828 
L 168.228039 54.319211 
L 170.672727 53.472733 
L 170.672727 51.497618 
L 174.574825 51.376693 
L 176.156757 51.215459 
L 177.218182 51.094534 
L 178.789091 50.812374 
L 180.818182 50.530215 
L 182.267532 50.40929 
L 183.354545 50.167439 
L 184.666458 50.006205 
L 190.963636 49.562812 
L 190.963636 49.320961 
L 193.957377 49.07911 
L 194.544385 48.877568 
L 199.65974 48.635717 
L 199.65974 48.232632 
L 203.138182 48.111707 
L 221.4 46.98307 
L 221.4 46.45906 
L 238.309091 46.338134 
L 238.309091 46.217209 
L 248.714685 45.975358 
L 251.836364 45.65289 
L 251.836364 45.531965 
L 297.490909 45.209497 
L 318.242975 45.169189 
L 373.581818 44.483945 
L 373.581818 44.483945 
" style="fill:none;stroke:#d62728;stroke-linecap:square;stroke-width:1.5;"/>
   </g>
   <g id="line2d_17">
    <path clip-path="url(#pa37823b685)" d="M 69.218182 242.116364 
L 69.218182 238.569218 
L 69.534897 238.448293 
L 69.914666 233.00665 
L 70.058965 231.43462 
L 70.242975 228.854878 
L 71.813243 209.385888 
L 71.985124 206.96738 
L 72.080536 205.677509 
L 72.189654 204.105478 
L 72.343065 202.21098 
L 72.377666 201.767587 
L 72.637998 198.945994 
L 72.681232 198.059208 
L 72.841558 196.366252 
L 72.885214 196.16471 
L 72.952705 195.479466 
L 73.153918 192.536948 
L 73.601018 187.256539 
L 73.760923 185.603891 
L 73.839755 184.878339 
L 73.991074 182.580756 
L 74.101021 181.69397 
L 76.484157 154.767913 
L 76.641685 153.034649 
L 76.69378 152.631565 
L 76.7957 151.220768 
L 76.839976 150.817684 
L 77.376382 145.335732 
L 77.444226 144.972956 
L 77.552345 143.884627 
L 80.942513 114.902838 
L 80.989151 114.378828 
L 81.100246 113.612968 
L 81.476786 111.113843 
L 81.9 108.534101 
L 82.00657 107.687623 
L 82.725444 103.334308 
L 82.883488 102.366905 
L 82.971352 101.96382 
L 83.105496 101.399502 
L 83.285409 100.230556 
L 83.360331 99.86778 
L 83.641246 98.456984 
L 83.711688 98.094207 
L 83.821488 97.126804 
L 83.993116 96.280326 
L 84.487261 93.82151 
L 84.663501 92.652564 
L 84.871169 91.765778 
L 85.198202 90.153439 
L 85.237321 89.992205 
L 85.341229 89.145727 
L 85.51399 87.936473 
L 85.639306 87.251229 
L 86.010658 85.276114 
L 86.636583 82.011129 
L 86.742149 81.44681 
L 87.005667 79.955397 
L 87.121925 79.753854 
L 87.222791 79.108919 
L 87.513264 78.383366 
L 87.621564 78.060899 
L 87.77694 77.536889 
L 88.038108 76.690411 
L 88.378328 75.360231 
L 89.199306 73.143266 
L 89.33786 72.619256 
L 90.543023 69.313961 
L 90.69169 68.991493 
L 90.994615 68.265941 
L 91.229517 67.822548 
L 91.347123 67.338846 
L 91.677585 66.492368 
L 92.011934 65.605582 
L 92.160164 65.283114 
L 92.334407 64.678487 
L 92.555969 64.235094 
L 92.630769 64.194786 
L 92.630769 63.872318 
L 92.793169 63.751393 
L 92.996591 63.02584 
L 93.36034 62.179362 
L 93.638748 61.856895 
L 94.358939 60.244556 
L 94.490253 60.083322 
L 94.581818 59.88178 
L 94.693552 59.720546 
L 94.818862 59.519003 
L 95.228268 58.833759 
L 95.306494 58.632217 
L 95.684585 58.309749 
L 95.785911 57.987282 
L 96.002182 57.664814 
L 96.287399 57.302038 
L 96.755844 56.818336 
L 96.887603 56.697411 
L 96.988587 56.45556 
L 97.352636 56.012167 
L 97.804822 55.488157 
L 97.901666 55.326923 
L 98.080251 55.165689 
L 98.205195 54.964147 
L 98.672727 54.440136 
L 98.745997 54.157977 
L 98.912195 53.956435 
L 98.973402 53.714584 
L 99.32008 53.351808 
L 99.395879 53.230882 
L 99.654545 53.069649 
L 99.728962 52.908415 
L 100.47715 52.263479 
L 101.29764 51.699161 
L 101.828571 51.255767 
L 102.122359 50.973608 
L 102.705623 50.691449 
L 102.787701 50.489907 
L 103.036364 50.368981 
L 103.036364 50.248056 
L 103.581818 50.006205 
L 104.113376 49.522503 
L 104.365825 49.320961 
L 104.561423 49.200036 
L 104.793152 48.998493 
L 105.103851 48.837259 
L 105.825492 48.635717 
L 106.009391 48.514792 
L 107.45482 48.03109 
L 108.452557 47.869856 
L 108.575549 47.789239 
L 109.555531 47.587697 
L 113.441958 46.821836 
L 115.534387 46.620294 
L 116.043357 46.499368 
L 118.370073 46.096284 
L 119.945455 45.93505 
L 121.053037 45.733507 
L 125.121707 45.491657 
L 127.955024 45.209497 
L 135.026536 45.007955 
L 135.38419 44.927338 
L 143.618182 44.766104 
L 147.26014 44.685487 
L 196.036364 44.443636 
L 196.036364 44.443636 
" style="fill:none;stroke:#9467bd;stroke-linecap:square;stroke-width:1.5;"/>
   </g>
   <g id="line2d_18">
    <path clip-path="url(#pa37823b685)" d="M 69.218182 242.116364 
L 69.328552 238.52891 
L 69.574496 229.05642 
L 69.702067 225.186807 
L 69.739991 223.655085 
L 69.888094 217.770049 
L 70.206732 205.717817 
L 70.245176 204.548871 
L 70.367118 199.308771 
L 70.419391 197.333656 
L 70.608877 190.279674 
L 70.720965 185.966668 
L 71.082584 173.148575 
L 71.412989 161.056034 
L 71.438435 160.249865 
L 71.730617 151.099843 
L 71.768469 149.85028 
L 72.195571 137.274038 
L 72.32207 134.210595 
L 73.129767 112.685873 
L 73.282275 109.219345 
L 73.460866 105.027264 
L 73.502673 104.180786 
L 75.176154 76.650102 
L 75.225107 76.408252 
L 75.36191 74.674987 
L 75.592944 72.175862 
L 75.688857 71.087534 
L 76.005845 67.862856 
L 76.078744 67.540389 
L 76.235011 66.290826 
L 76.366252 65.081572 
L 76.671985 62.582447 
L 76.7593 62.340596 
L 76.878521 61.655352 
L 78.376207 55.447848 
L 78.480922 55.12538 
L 78.621286 54.762604 
L 78.737585 54.440136 
L 78.959185 53.795201 
L 79.116186 53.513042 
L 79.255649 53.02934 
L 79.374557 52.666564 
L 79.467306 52.344096 
L 79.633667 52.061937 
L 79.742747 51.658852 
L 80.83017 49.562812 
L 81.048571 49.280653 
L 81.17746 49.119419 
L 81.193145 49.038802 
L 81.392727 48.877568 
L 81.757508 48.313249 
L 82.031828 48.111707 
L 82.104545 47.829548 
L 82.451383 47.628005 
L 82.466542 47.587697 
L 82.754758 47.426463 
L 83.289458 46.942761 
L 83.436629 46.741219 
L 83.583065 46.579985 
L 84.032341 46.378443 
L 84.989258 46.015667 
L 85.721083 45.854433 
L 88.421765 45.290114 
L 90.065006 45.12888 
L 90.109033 45.088572 
L 98.928298 44.483945 
L 103.036364 44.443636 
L 103.036364 44.443636 
" style="fill:none;stroke:#8c564b;stroke-linecap:square;stroke-width:1.5;"/>
   </g>
   <g id="patch_3">
    <path d="M 54 252 
L 54 34.56 
" style="fill:none;stroke:#000000;stroke-linecap:square;stroke-linejoin:miter;stroke-width:0.8;"/>
   </g>
   <g id="patch_4">
    <path d="M 388.8 252 
L 388.8 34.56 
" style="fill:none;stroke:#000000;stroke-linecap:square;stroke-linejoin:miter;stroke-width:0.8;"/>
   </g>
   <g id="patch_5">
    <path d="M 54 252 
L 388.8 252 
" style="fill:none;stroke:#000000;stroke-linecap:square;stroke-linejoin:miter;stroke-width:0.8;"/>
   </g>
   <g id="patch_6">
    <path d="M 54 34.56 
L 388.8 34.56 
" style="fill:none;stroke:#000000;stroke-linecap:square;stroke-linejoin:miter;stroke-width:0.8;"/>
   </g>
   <g id="legend_1">
    <g id="patch_7">
     <path d="M 317.9875 247 
L 381.8 247 
Q 383.8 247 383.8 245 
L 383.8 157.93125 
Q 383.8 155.93125 381.8 155.93125 
L 317.9875 155.93125 
Q 315.9875 155.93125 315.9875 157.93125 
L 315.9875 245 
Q 315.9875 247 317.9875 247 
z
" style="fill:#ffffff;opacity:0.8;stroke:#cccccc;stroke-linejoin:miter;"/>
    </g>
    <g id="line2d_19">
     <path d="M 319.9875 164.029688 
L 339.9875 164.029688 
" style="fill:none;stroke:#1f77b4;stroke-linecap:square;stroke-width:1.5;"/>
    </g>
    <g id="line2d_20"/>
    <g id="text_15">
     <!-- 10 -->
     <g transform="translate(347.9875 167.529688)scale(0.1 -0.1)">
      <use xlink:href="#DejaVuSans-31"/>
      <use x="63.623047" xlink:href="#DejaVuSans-30"/>
     </g>
    </g>
    <g id="line2d_21">
     <path d="M 319.9875 178.707813 
L 339.9875 178.707813 
" style="fill:none;stroke:#ff7f0e;stroke-linecap:square;stroke-width:1.5;"/>
    </g>
    <g id="line2d_22"/>
    <g id="text_16">
     <!-- 20 -->
     <g transform="translate(347.9875 182.207813)scale(0.1 -0.1)">
      <use xlink:href="#DejaVuSans-32"/>
      <use x="63.623047" xlink:href="#DejaVuSans-30"/>
     </g>
    </g>
    <g id="line2d_23">
     <path d="M 319.9875 193.385938 
L 339.9875 193.385938 
" style="fill:none;stroke:#2ca02c;stroke-linecap:square;stroke-width:1.5;"/>
    </g>
    <g id="line2d_24"/>
    <g id="text_17">
     <!-- 50 -->
     <g transform="translate(347.9875 196.885938)scale(0.1 -0.1)">
      <use xlink:href="#DejaVuSans-35"/>
      <use x="63.623047" xlink:href="#DejaVuSans-30"/>
     </g>
    </g>
    <g id="line2d_25">
     <path d="M 319.9875 208.064063 
L 339.9875 208.064063 
" style="fill:none;stroke:#d62728;stroke-linecap:square;stroke-width:1.5;"/>
    </g>
    <g id="line2d_26"/>
    <g id="text_18">
     <!-- 100 -->
     <g transform="translate(347.9875 211.564063)scale(0.1 -0.1)">
      <use xlink:href="#DejaVuSans-31"/>
      <use x="63.623047" xlink:href="#DejaVuSans-30"/>
      <use x="127.246094" xlink:href="#DejaVuSans-30"/>
     </g>
    </g>
    <g id="line2d_27">
     <path d="M 319.9875 222.742188 
L 339.9875 222.742188 
" style="fill:none;stroke:#9467bd;stroke-linecap:square;stroke-width:1.5;"/>
    </g>
    <g id="line2d_28"/>
    <g id="text_19">
     <!-- 1000 -->
     <g transform="translate(347.9875 226.242188)scale(0.1 -0.1)">
      <use xlink:href="#DejaVuSans-31"/>
      <use x="63.623047" xlink:href="#DejaVuSans-30"/>
      <use x="127.246094" xlink:href="#DejaVuSans-30"/>
      <use x="190.869141" xlink:href="#DejaVuSans-30"/>
     </g>
    </g>
    <g id="line2d_29">
     <path d="M 319.9875 237.420313 
L 339.9875 237.420313 
" style="fill:none;stroke:#8c564b;stroke-linecap:square;stroke-width:1.5;"/>
    </g>
    <g id="line2d_30"/>
    <g id="text_20">
     <!-- 10000 -->
     <g transform="translate(347.9875 240.920313)scale(0.1 -0.1)">
      <use xlink:href="#DejaVuSans-31"/>
      <use x="63.623047" xlink:href="#DejaVuSans-30"/>
      <use x="127.246094" xlink:href="#DejaVuSans-30"/>
      <use x="190.869141" xlink:href="#DejaVuSans-30"/>
      <use x="254.492188" xlink:href="#DejaVuSans-30"/>
     </g>
    </g>
   </g>
  </g>
 </g>
 <defs>
  <clipPath id="pa37823b685">
   <rect height="217.44" width="334.8" x="54" y="34.56"/>
  </clipPath>
 </defs>
</svg>
